<svg width="27" height="27" viewBox="0 0 27 27" fill="none" xmlns="http://www.w3.org/2000/svg">
<path fill-rule="evenodd" clip-rule="evenodd" d="M13.5 25C19.8513 25 25 19.8513 25 13.5C25 7.14873 19.8513 2 13.5 2C7.14873 2 2 7.14873 2 13.5C2 19.8513 7.14873 25 13.5 25ZM13.5 26C20.4036 26 26 20.4036 26 13.5C26 6.59644 20.4036 1 13.5 1C6.59644 1 1 6.59644 1 13.5C1 20.4036 6.59644 26 13.5 26Z" fill="#BB893E"/>
<rect x="18.4492" y="7.8457" width="1" height="15" transform="rotate(45 18.4492 7.8457)" fill="#BB893E"/>
<rect x="7.84375" y="8.55273" width="1" height="15" transform="rotate(-45 7.84375 8.55273)" fill="#BB893E"/>
</svg>
