<svg width="530" height="167" viewBox="0 0 530 167" fill="none" xmlns="http://www.w3.org/2000/svg">
<g clip-path="url(#clip0_806_26809)">
<path d="M244.586 86.456C244.62 115.836 220.368 139.566 190.722 138.99C161.954 138.431 138.451 114.806 139.01 85.4533C139.552 56.9937 162.969 33.8747 192.036 34.0005C221.114 34.1263 244.572 57.5799 244.586 86.4556V86.456ZM167.94 126.777C173.093 129.772 178.549 131.739 184.383 132.666C190.664 133.663 196.891 133.387 203.068 131.893C206.302 131.11 210.855 129.439 211.959 128.608C211.769 128.199 211.567 127.786 211.385 127.363C211.252 127.053 211.033 126.848 210.732 126.702C210.054 126.373 209.39 126.01 208.706 125.695C207.415 125.098 206.121 124.507 204.814 123.946C202.908 123.127 200.955 122.492 198.833 122.634C197.924 122.694 197.04 122.56 196.16 122.339C195.333 122.131 194.67 121.716 194.228 120.977C194.124 120.803 194.02 120.626 193.89 120.472C193.306 119.775 193.073 118.932 192.989 118.071C192.873 116.893 192.813 115.701 192.996 114.523C193.065 114.072 192.955 113.757 192.663 113.428C191.621 112.251 190.775 110.94 190.069 109.537C189.659 108.724 189.673 107.938 190.142 107.151C190.299 106.888 190.541 106.74 190.774 106.57C191.091 106.339 191.477 106.188 191.752 105.819C191.574 105.691 191.442 105.585 191.3 105.495C191.03 105.324 190.742 105.18 190.485 104.993C189.976 104.624 189.631 104.162 189.579 103.495C189.482 102.257 189.344 101.021 189.217 99.785C189.182 99.4466 189.176 99.0977 188.995 98.7675C187.667 98.5362 186.353 98.3084 185.038 98.0767C184.61 98.0012 184.183 97.9157 183.756 97.8346C183.48 97.4666 183.187 97.1099 182.933 96.7281C182.268 95.731 181.934 94.6531 182.181 93.4451C182.233 93.1921 182.265 92.9353 182.309 92.6588C182.616 92.4397 182.913 92.2084 183.229 92.0058C183.701 91.7034 184.077 91.3215 184.402 90.8633C185.038 89.9651 185.706 89.0903 186.371 88.2125C187.43 86.815 188.602 85.5396 189.888 84.3863C189.975 84.3086 190.076 84.2444 190.148 84.1559C190.292 83.9779 190.446 83.8005 190.552 83.5996C190.861 83.0108 191.124 82.3963 191.454 81.8192C191.733 81.3302 191.743 80.8407 191.642 80.314C191.508 79.6045 191.395 78.8907 191.281 78.1774C191.249 77.9795 191.206 77.7695 191.24 77.5777C191.488 76.1553 191.575 74.7043 191.972 73.3093C192.787 70.4454 193.646 67.5972 195.003 64.9252C195.266 64.4062 195.552 63.912 195.901 63.4468C197.642 61.1315 199.374 58.8092 201.112 56.4925C201.355 56.1688 201.607 55.8486 201.879 55.5483C202.949 54.3676 204.063 53.2242 205.096 52.0123C206.365 50.524 207.805 49.2413 209.407 48.1223C210.263 47.5243 211.094 46.8891 211.795 46.1059C212.014 45.8616 212.291 45.7188 212.593 45.5964C212.898 45.4728 213.239 45.4025 213.512 45.1634C211.907 43.922 205.902 41.6886 201.776 40.806C194.848 39.3246 187.928 39.3854 181.027 40.9813C176.473 42.0344 169.953 44.7035 167.94 46.3224V126.776L167.94 126.777Z" fill="white"/>
<path d="M348.907 89.3182C348.112 89.4453 343.345 89.4527 342.492 89.3386C342.469 89.1906 342.43 89.0279 342.423 88.8639C342.41 88.604 342.418 88.3436 342.418 88.0833C342.418 80.9107 342.423 73.7381 342.415 66.5654C342.412 63.7862 342.593 61.0204 342.941 58.2638C342.966 58.0655 342.972 57.865 342.89 57.6355C342.808 57.8277 342.707 58.0143 342.646 58.213C342.32 59.2917 342.043 60.3869 341.676 61.4513C340.288 65.4685 338.874 69.4761 337.468 73.4873C336.14 77.2801 334.812 81.0734 333.477 84.8641C333.341 85.2511 333.262 85.6373 333.269 86.0495C333.282 86.9169 333.275 87.7847 333.271 88.6526C333.269 88.876 333.244 89.0995 333.231 89.3073C332.53 89.4397 327.909 89.4692 326.875 89.3525C326.846 89.2062 326.796 89.0461 326.784 88.8838C326.768 88.6534 326.779 88.4213 326.779 88.19C326.779 72.3408 326.779 56.4917 326.78 40.6429C326.78 40.2719 326.789 39.9005 326.795 39.4887C327.354 39.3386 327.876 39.4228 328.388 39.4093C328.94 39.395 329.493 39.4058 330.046 39.4058C330.569 39.4058 331.093 39.398 331.616 39.408C332.132 39.4176 332.654 39.3603 333.178 39.4544C333.321 39.8246 333.269 40.173 333.27 40.5123C333.274 44.8506 333.272 49.1889 333.272 53.5272C333.272 55.8699 333.261 58.2126 333.275 60.5553C333.294 63.5402 333.039 66.5021 332.574 69.4488C332.552 69.5877 332.554 69.7304 332.63 69.8957C332.708 69.7204 332.8 69.5503 332.864 69.3698C335.967 60.5319 339.066 51.6926 342.176 42.8568C342.343 42.3838 342.433 41.9173 342.422 41.4179C342.408 40.7866 342.43 40.1548 342.437 39.5C343.176 39.3282 343.872 39.4258 344.559 39.4102C345.286 39.3937 346.014 39.4011 346.741 39.408C347.43 39.4145 348.123 39.3724 348.835 39.4449C348.866 39.6076 348.904 39.7165 348.904 39.825C348.907 56.306 348.907 72.7869 348.907 89.3182H348.907Z" fill="white"/>
<path d="M369.01 62.7381C369.303 62.8583 369.515 62.9451 369.727 63.0331C372.018 63.9834 373.647 65.575 374.511 67.9086C374.974 69.1622 375.258 70.4583 375.441 71.7783C375.703 73.6753 375.744 75.5811 375.611 77.4881C375.464 79.6065 375.042 81.6624 374.133 83.6037C372.848 86.3448 370.732 88.0787 367.807 88.8749C366.306 89.2837 364.777 89.4074 363.233 89.4156C360.936 89.4277 358.639 89.4204 356.343 89.4165C356.118 89.4165 355.893 89.3805 355.646 89.3592C355.618 89.2117 355.58 89.1027 355.58 88.9934C355.577 72.5155 355.577 56.038 355.577 39.5215C355.773 39.4785 355.934 39.413 356.096 39.4126C358.683 39.4065 361.271 39.3909 363.859 39.4169C364.933 39.4277 366.005 39.5518 367.055 39.8022C370.185 40.549 372.266 42.4695 373.407 45.4383C373.803 46.4702 374.052 47.5393 374.193 48.6298C374.546 51.347 374.434 54.0524 373.883 56.7349C373.75 57.3831 373.558 58.0249 373.33 58.6467C372.688 60.3923 371.479 61.6238 369.783 62.3901C369.551 62.4947 369.32 62.5988 369.011 62.7372L369.01 62.7381ZM362.858 65.9647C362.848 66.4073 362.835 66.7483 362.835 67.0894C362.834 71.708 362.834 76.3261 362.834 80.9447C362.834 81.6086 362.83 82.2725 362.839 82.9364C362.841 83.0991 362.885 83.2609 362.915 83.4592C363.686 83.4987 364.408 83.5213 365.125 83.425C366.01 83.3061 366.696 82.867 367.147 82.0829C367.453 81.5522 367.701 80.9968 367.783 80.3906C367.899 79.5341 368.025 78.674 368.058 77.8123C368.15 75.4765 368.175 73.1382 367.935 70.808C367.865 70.122 367.73 69.4386 367.567 68.7678C367.409 68.1204 367.098 67.5276 366.722 66.9735C366.304 66.3582 365.716 66.012 364.979 65.972C364.317 65.9365 363.651 65.9647 362.858 65.9647V65.9647ZM362.886 59.991C364.601 60.4748 365.901 59.9328 366.735 58.4484C367.204 57.6144 367.37 56.7075 367.391 55.7833C367.429 54.081 367.436 52.3766 367.389 50.6748C367.361 49.6677 367.219 48.6619 366.921 47.6882C366.733 47.0733 366.457 46.5049 366.021 46.0241C365.662 45.6275 365.235 45.3368 364.688 45.2743C364.285 45.2283 363.88 45.1906 363.475 45.1758C363.283 45.1689 363.09 45.2235 362.911 45.2483C362.793 46.1365 362.75 54.5918 362.837 59.4117C362.84 59.6096 362.87 59.807 362.887 59.9914L362.886 59.991Z" fill="white"/>
<path d="M287.907 69.6012C287.819 70.7293 287.876 71.8228 287.866 72.9141C287.856 74.0128 287.864 75.1119 287.864 76.211V82.718C287.864 83.8171 287.865 84.9158 287.864 86.0149C287.863 87.1083 287.87 88.2018 287.859 89.2132C287.77 89.3156 287.754 89.3421 287.73 89.3577C287.708 89.3729 287.678 89.3842 287.651 89.3846C285.383 89.3964 283.116 89.4076 280.848 89.4159C280.707 89.4163 280.566 89.3924 280.379 89.376C280.349 89.1955 280.309 89.0336 280.299 88.87C280.286 88.6396 280.294 88.4075 280.294 88.1762C280.294 72.3283 280.294 56.48 280.296 40.6321C280.296 40.2611 280.253 39.8845 280.367 39.4762C280.568 39.4528 280.763 39.4107 280.958 39.4102C284.099 39.4059 287.24 39.399 290.381 39.4111C291.578 39.4159 292.763 39.5751 293.899 39.9604C295.96 40.6595 297.556 41.9439 298.656 43.8219C299.499 45.2611 300.024 46.8232 300.359 48.4422C301.252 52.7488 301.232 57.055 300.239 61.3459C299.932 62.6737 299.491 63.9581 298.815 65.1509C297.571 67.3457 295.68 68.6735 293.228 69.2315C292.291 69.445 291.337 69.5378 290.374 69.5343C289.763 69.5322 289.152 69.5296 288.542 69.5374C288.346 69.54 288.151 69.5764 287.908 69.6025L287.907 69.6012ZM287.899 45.8222C287.885 46.204 287.865 46.4878 287.865 46.7716C287.862 48.8813 287.863 50.9906 287.863 53.1003C287.863 55.932 287.861 58.7641 287.867 61.5959C287.867 61.9031 287.811 62.2237 287.968 62.5553C288.914 62.6039 289.834 62.6555 290.755 62.4889C291.236 62.4017 291.617 62.1517 291.928 61.7933C292.255 61.4184 292.521 61.0023 292.634 60.5137C292.738 60.0646 292.842 59.6107 292.888 59.1534C293.116 56.8783 293.097 54.5955 293.053 52.3136C293.037 51.4483 292.968 50.5835 292.898 49.7209C292.825 48.8236 292.666 47.9445 292.195 47.1517C291.736 46.3789 291.069 45.8951 290.165 45.8322C289.446 45.7818 288.72 45.8222 287.899 45.8222Z" fill="white"/>
<path d="M259.807 89.3299C258.909 89.4544 253.899 89.4449 253.127 89.3225C253.141 89.0825 253.136 88.8304 253.174 88.5848C253.862 84.1294 254.554 79.6748 255.248 75.2207C255.979 70.5379 256.717 65.8564 257.445 61.1736C258.114 56.8618 258.773 52.5482 259.438 48.2355C259.843 45.6082 260.25 42.9808 260.66 40.3539C260.704 40.0697 260.774 39.7898 260.828 39.5317C260.883 39.4978 260.906 39.4818 260.931 39.4683C260.957 39.4544 260.983 39.4327 261.009 39.4327C263.277 39.4236 265.544 39.4154 267.812 39.4102C267.926 39.4102 268.039 39.4332 268.208 39.4518C268.251 39.6098 268.308 39.766 268.334 39.9278C268.676 42.0388 269.013 44.1502 269.35 46.2621C269.728 48.6308 270.103 50.9996 270.48 53.3679C270.917 56.1076 271.353 58.8469 271.79 61.5867C272.236 64.3832 272.683 67.1798 273.126 69.9768C273.502 72.346 273.872 74.7156 274.249 77.0848C274.685 79.8241 275.126 82.563 275.564 85.3023C275.751 86.4721 275.941 87.6419 276.121 88.8126C276.147 88.9758 276.125 89.1463 276.125 89.3524C275.967 89.3759 275.828 89.4097 275.689 89.4154C273.971 89.4843 269.914 89.4371 269.192 89.3364C269.142 89.1086 269.067 88.8638 269.036 88.6139C268.605 85.173 268.182 81.7312 267.752 78.2898C267.645 77.4358 267.52 76.5841 267.405 75.7444C267.265 75.7015 267.184 75.6551 267.103 75.6551C265.329 75.6494 263.555 75.6481 261.781 75.6498C261.67 75.6498 261.559 75.6833 261.401 75.7084C261.146 77.2258 261.036 78.7489 260.845 80.2602C260.657 81.7511 260.494 83.2451 260.334 84.7395C260.17 86.2591 260.009 87.7786 259.808 89.3303L259.807 89.3299ZM266.623 69.3772C266.607 69.1598 266.603 68.9866 266.582 68.8157C266.407 67.382 266.227 65.9488 266.052 64.5152C265.789 62.3642 265.519 60.2142 265.271 58.062C265.043 56.082 264.834 54.0995 264.626 52.1169C264.499 50.9102 264.393 49.7013 264.268 48.4946C264.245 48.2768 264.277 48.0238 263.993 47.8611C263.913 48.8317 263.822 49.7768 263.758 50.7236C263.652 52.2792 263.594 53.8387 263.46 55.3917C263.297 57.2623 263.084 59.1285 262.875 60.9948C262.676 62.7752 262.452 64.5525 262.246 66.332C262.13 67.3313 262.031 68.3327 261.921 69.3585C262.068 69.3989 262.175 69.447 262.284 69.4553C263.07 69.5139 266.014 69.4635 266.624 69.3776L266.623 69.3772Z" fill="white"/>
<path d="M302.329 39.5004C302.971 39.3846 308.461 39.3581 309.54 39.4696C309.886 40.6907 310.082 41.9699 310.352 43.2312C310.618 44.4744 310.859 45.7228 311.116 46.9681C311.378 48.2412 311.648 49.513 311.912 50.7861C312.168 52.0202 312.419 53.2551 312.715 54.6948C312.85 54.3481 312.93 54.2015 312.964 54.0448C313.55 51.3337 314.132 48.6222 314.712 45.9098C315.129 43.9602 315.542 42.0102 315.962 40.0611C316.004 39.8658 316.079 39.6775 316.135 39.4978C316.809 39.382 322.008 39.3664 322.911 39.4809C322.853 39.7335 322.807 39.9834 322.736 40.226C321.809 43.417 320.878 46.6075 319.947 49.7972C318.748 53.9025 317.554 58.0091 316.342 62.1104C316.196 62.6047 316.211 63.0564 316.35 63.545C318.698 71.8592 321.037 80.1765 323.375 88.4938C323.452 88.765 323.503 89.0431 323.566 89.3182C322.872 89.4423 317.226 89.4657 316.155 89.3512C316.093 89.1633 316.003 88.9555 315.954 88.7389C314.784 83.4938 313.619 78.2477 312.449 73.0026C312.414 72.8451 312.349 72.6945 312.235 72.3474C311.799 73.9186 311.521 75.3179 311.197 76.7056C310.868 78.1124 310.537 79.5187 310.212 80.9259C309.886 82.3335 309.58 83.7454 309.239 85.1496C308.9 86.5477 308.639 87.9657 308.239 89.326C307.522 89.4401 302.44 89.4579 301.442 89.3529C301.356 89.106 301.476 88.8678 301.545 88.6318C302.24 86.2457 302.939 83.8604 303.637 81.4752C305.3 75.7892 306.957 70.1014 308.633 64.4193C308.795 63.8708 308.807 63.3727 308.652 62.816C306.574 55.3262 304.516 47.8303 302.452 40.3366C302.377 40.0602 302.264 39.7907 302.329 39.4996L302.329 39.5004Z" fill="white"/>
<path d="M352.366 121.201C353.164 121.165 353.942 121.162 354.746 121.203C354.935 121.49 354.955 121.812 355.004 122.115C355.703 126.421 356.395 130.729 357.088 135.036C357.207 135.778 357.329 136.519 357.443 137.262C357.491 137.575 357.521 137.89 357.564 138.242C356.781 138.386 356.035 138.303 355.24 138.298C355.177 138.066 355.094 137.855 355.064 137.637C354.923 136.606 354.8 135.573 354.663 134.542C354.626 134.257 354.564 133.975 354.511 133.675C353.852 133.559 353.222 133.588 352.576 133.649C352.332 134.146 352.419 134.682 352.325 135.187C352.229 135.697 352.219 136.222 352.138 136.736C352.058 137.242 352.107 137.773 351.912 138.285H347.219C347.151 138.101 347.064 137.922 347.021 137.734C346.715 136.381 346.418 135.026 346.115 133.673C346.059 133.42 345.988 133.171 345.913 132.88C345.688 132.991 345.666 133.183 345.625 133.362C345.279 134.854 344.933 136.346 344.586 137.838C344.554 137.974 344.51 138.106 344.478 138.22C343.781 138.339 340.861 138.359 339.91 138.258C339.724 138.023 339.726 137.73 339.689 137.448C339.557 136.416 339.428 135.383 339.289 134.352C339.258 134.126 339.191 133.906 339.136 133.663C338.485 133.571 337.856 133.578 337.173 133.66C336.918 135.173 336.851 136.7 336.597 138.245C335.83 138.363 335.094 138.343 334.346 138.261C334.331 138.141 334.3 138.057 334.312 137.979C335.179 132.412 336.049 126.847 336.916 121.298C337.35 121.094 337.763 121.2 338.163 121.181C338.566 121.163 338.971 121.178 339.374 121.178C339.583 121.498 339.606 121.817 339.655 122.123C340.174 125.317 340.69 128.512 341.201 131.707C341.462 133.333 341.711 134.961 341.969 136.588C342.014 136.871 342.081 137.152 342.161 137.55C342.285 137.337 342.388 137.22 342.428 137.084C343.125 134.729 343.81 132.369 344.508 130.014C344.629 129.607 344.597 129.225 344.485 128.824C343.84 126.514 343.206 124.2 342.572 121.887C342.52 121.7 342.491 121.506 342.441 121.262C343.27 121.111 344.042 121.19 344.866 121.201C344.938 121.424 345.026 121.632 345.072 121.85C345.326 123.066 345.567 124.285 345.819 125.502C345.853 125.665 345.921 125.821 346.026 126.142C346.522 124.424 346.724 122.806 347.175 121.234C347.94 121.142 348.657 121.16 349.425 121.225C349.405 121.417 349.411 121.587 349.366 121.742C348.713 123.99 348.063 126.239 347.389 128.481C347.242 128.971 347.237 129.419 347.381 129.914C348.051 132.217 348.688 134.53 349.341 136.838C349.401 137.051 349.488 137.258 349.557 137.449C349.639 137.449 349.671 137.458 349.696 137.447C349.716 137.438 349.737 137.409 349.741 137.386C350.588 132.05 351.435 126.713 352.281 121.377C352.286 121.35 352.305 121.325 352.366 121.201H352.366ZM338.078 124.759C338.052 124.763 338.025 124.767 337.999 124.771C337.941 125.512 337.89 126.254 337.821 126.993C337.755 127.711 337.65 128.427 337.599 129.146C337.547 129.888 337.321 130.618 337.425 131.408C337.914 131.503 338.38 131.567 338.894 131.359C338.651 129.272 338.413 127.212 338.171 125.153C338.155 125.02 338.11 124.89 338.078 124.758L338.078 124.759ZM354.247 131.457C354.012 129.346 353.79 127.342 353.562 125.339C353.54 125.147 353.476 124.96 353.431 124.771C353.329 124.903 353.313 125.03 353.304 125.158C353.261 125.762 353.236 126.368 353.175 126.97C353.045 128.262 352.894 129.552 352.761 130.843C352.742 131.03 352.778 131.224 352.791 131.451C353.046 131.464 353.245 131.482 353.443 131.483C353.67 131.483 353.897 131.469 354.247 131.457V131.457Z" fill="white"/>
<path d="M343.973 95.7519C344.079 96.6423 344.131 109.807 344.051 112.338C344.047 112.477 344.021 112.614 344.007 112.736C343.294 112.875 342.328 112.884 341.543 112.766C341.355 112.482 341.443 112.155 341.442 111.847C341.435 107.713 341.437 103.579 341.437 99.4454V98.23C340.947 98.0161 340.496 98.0903 340.001 98.1524C339.967 98.3272 339.912 98.4895 339.908 98.6527C339.878 99.8368 339.867 101.022 339.835 102.206C339.781 104.198 339.74 106.192 339.643 108.182C339.603 108.985 339.45 109.787 339.305 110.581C339.216 111.064 339.016 111.52 338.715 111.921C338.104 112.735 337.269 113.106 336.278 112.964C335.379 112.836 334.484 112.869 333.586 112.839C333.474 112.835 333.362 112.799 333.208 112.77C332.898 111.271 332.84 109.737 332.537 108.23C331.855 108.128 331.231 108.127 330.569 108.227C330.377 109.009 330.357 109.788 330.256 110.554C330.158 111.292 330.117 112.039 329.971 112.79C329.2 112.873 328.484 112.867 327.823 112.807C327.746 112.746 327.716 112.732 327.704 112.709C327.691 112.685 327.69 112.652 327.695 112.624C328.557 107.033 329.42 101.442 330.279 95.8773C330.929 95.709 331.688 95.6877 332.815 95.7992C332.874 96.0166 332.964 96.254 333.003 96.4996C333.609 100.265 334.208 104.031 334.809 107.798C334.987 108.911 335.162 110.024 335.347 111.136C335.393 111.415 335.47 111.69 335.618 111.959C335.637 111.569 335.657 111.179 335.678 110.749C335.901 110.681 336.114 110.607 336.332 110.55C336.767 110.436 337.052 110.152 337.165 109.74C337.286 109.297 337.385 108.839 337.416 108.382C337.509 106.999 337.588 105.615 337.631 104.229C337.708 101.775 337.751 99.32 337.815 96.8658C337.824 96.523 337.876 96.1811 337.909 95.8253C338.605 95.6565 339.274 95.7593 339.935 95.7415C340.603 95.7233 341.272 95.7359 341.941 95.7381C342.605 95.7402 343.269 95.7463 343.975 95.7511L343.973 95.7519ZM331.364 99.4055C331.312 100.125 331.273 100.844 331.206 101.559C331.138 102.305 331.018 103.047 330.966 103.794C330.916 104.502 330.69 105.201 330.807 105.965C331.288 106.037 331.735 106.04 332.159 105.971C332.206 105.871 332.254 105.818 332.249 105.771C332.021 103.738 331.789 101.706 331.553 99.675C331.544 99.5934 331.493 99.5153 331.454 99.4402C331.444 99.4216 331.402 99.4194 331.364 99.4059L331.364 99.4055Z" fill="white"/>
<path d="M298.648 112.79C297.947 112.867 297.321 112.883 296.648 112.778C296.628 112.534 296.592 112.31 296.592 112.087C296.599 108.907 296.611 105.726 296.618 102.546C296.618 102.35 296.585 102.154 296.489 101.957C295.947 105.546 295.405 109.136 294.861 112.743C294.192 112.908 293.569 112.861 292.888 112.785C292.555 111.134 292.366 109.472 292.084 107.825C291.803 106.182 291.552 104.533 291.226 102.89C291.121 103.425 291.16 103.962 291.152 104.495C291.144 105.044 291.15 105.594 291.15 106.143V109.44C291.15 109.989 291.152 110.538 291.15 111.088C291.147 111.632 291.138 112.176 291.132 112.77C290.456 112.88 289.84 112.888 289.171 112.762C289.155 112.484 289.129 112.23 289.126 111.976C289.065 104.527 289.11 96.4651 289.214 95.8611C289.814 95.7036 291.066 95.6871 291.931 95.8381C292.305 97.8848 292.612 99.9659 292.934 102.044C293.256 104.126 293.558 106.21 293.872 108.318C294.191 106.226 294.507 104.155 294.823 102.085C295.141 100.005 295.429 97.92 295.775 95.8667C296.455 95.7044 297.734 95.6897 298.622 95.8294C298.641 95.98 298.68 96.1453 298.68 96.3102C298.683 101.63 298.682 106.951 298.681 112.271C298.681 112.413 298.664 112.555 298.648 112.79V112.79Z" fill="white"/>
<path d="M279.653 112.795C279.453 112.812 279.254 112.84 279.054 112.843C278.621 112.849 278.188 112.84 277.719 112.838C277.675 112.628 277.613 112.468 277.612 112.307C277.606 109.878 277.595 107.45 277.614 105.022C277.623 103.868 277.69 102.715 277.677 101.556C277.335 102.751 277.287 103.992 277.069 105.204C276.844 106.455 276.686 107.718 276.495 108.975C276.305 110.227 276.11 111.479 275.912 112.764C275.245 112.893 274.623 112.864 273.95 112.79C273.62 111.067 273.405 109.353 273.129 107.649C272.857 105.968 272.569 104.29 272.241 102.612C272.098 103.269 272.221 103.931 272.201 104.588C272.179 105.253 272.196 105.918 272.196 106.583V108.664C272.196 109.329 272.2 109.994 272.194 110.659C272.188 111.347 272.224 112.038 272.16 112.778C271.527 112.897 270.927 112.843 270.282 112.813C270.246 112.651 270.195 112.492 270.178 112.33C270.16 112.158 270.172 111.983 270.172 111.81C270.172 106.808 270.172 101.807 270.173 96.8051C270.173 96.4918 270.188 96.1781 270.196 95.88C270.815 95.7068 271.927 95.6821 272.96 95.8162C273.291 97.134 273.418 98.5112 273.657 99.8663C273.893 101.204 274.089 102.548 274.287 103.891C274.489 105.256 274.672 106.622 274.872 108.058C275.162 107.697 275.059 107.304 275.124 106.955C275.191 106.585 275.241 106.213 275.299 105.842C275.357 105.471 275.417 105.1 275.475 104.729C275.532 104.358 275.588 103.986 275.645 103.615C275.703 103.243 275.76 102.872 275.817 102.501C275.873 102.13 275.928 101.758 275.984 101.387C276.041 101.016 276.098 100.645 276.155 100.273C276.211 99.9019 276.268 99.5305 276.325 99.159C276.382 98.7876 276.439 98.4166 276.495 98.0452C276.551 97.6738 276.605 97.3023 276.664 96.9313C276.722 96.5634 276.787 96.1963 276.845 95.847C277.553 95.7068 278.904 95.6994 279.667 95.824C279.694 95.8964 279.75 95.9754 279.75 96.0548C279.754 101.547 279.754 107.04 279.75 112.533C279.75 112.612 279.693 112.691 279.653 112.795V112.795Z" fill="white"/>
<path d="M297.563 138.285H295.432C295.401 138.091 295.346 137.901 295.345 137.712C295.336 136.758 295.34 135.803 295.34 134.849C295.34 130.655 295.34 126.462 295.34 122.268V121.339C295.735 121.078 296.123 121.194 296.488 121.184C296.83 121.174 297.182 121.129 297.571 121.276C297.645 121.908 297.597 122.54 297.606 123.168C297.615 123.804 297.608 124.441 297.608 125.077C297.608 125.713 297.608 126.349 297.608 126.985C297.608 127.622 297.625 128.259 297.602 128.894C297.581 129.526 297.52 130.157 297.463 130.981C297.625 130.705 297.713 130.596 297.758 130.471C298.699 127.83 299.644 125.189 300.563 122.54C300.702 122.14 300.72 121.699 300.799 121.248C301.486 121.117 302.169 121.19 302.8 121.204C303.05 121.495 302.974 121.767 302.975 122.018C302.982 123.869 302.979 125.72 302.979 127.571C302.979 130.81 302.981 134.049 302.976 137.288C302.975 137.6 303.033 137.922 302.886 138.256C302.197 138.373 301.514 138.313 300.775 138.297C300.751 138.052 300.713 137.859 300.714 137.667C300.731 134.718 300.754 131.768 300.772 128.82C300.773 128.665 300.756 128.511 300.64 128.343C300.373 129.097 300.104 129.851 299.839 130.606C299.195 132.433 298.568 134.266 297.903 136.085C297.7 136.64 297.564 137.186 297.603 137.775C297.612 137.914 297.582 138.055 297.562 138.287L297.563 138.285Z" fill="white"/>
<path d="M259.634 102.811C259.559 102.889 259.449 102.954 259.416 103.046C258.462 105.743 257.514 108.442 256.574 111.143C256.5 111.357 256.473 111.592 256.458 111.819C256.438 112.106 256.453 112.395 256.453 112.67C255.919 112.885 255.278 112.912 254.292 112.769C254.101 112.486 254.19 112.158 254.189 111.85C254.181 109.018 254.184 106.186 254.184 103.353C254.184 101.127 254.183 98.902 254.186 96.6764C254.186 96.3952 254.21 96.114 254.224 95.8107C254.97 95.6914 255.654 95.7235 256.382 95.7886C256.407 95.9769 256.449 96.1418 256.448 96.3067C256.443 98.8208 256.439 101.335 256.418 103.849C256.413 104.366 256.341 104.882 256.288 105.555C256.437 105.306 256.535 105.189 256.582 105.055C257.532 102.388 258.483 99.7207 259.412 97.0465C259.542 96.6734 259.563 96.2624 259.644 95.8151C260.321 95.6845 261.027 95.7131 261.775 95.806C261.796 95.9765 261.824 96.114 261.829 96.2525C261.92 99.0148 261.862 111.928 261.752 112.761C261.445 112.903 261.094 112.833 260.756 112.844C260.409 112.855 260.061 112.847 259.676 112.847C259.634 112.647 259.57 112.487 259.571 112.327C259.583 109.148 259.604 105.969 259.62 102.788C259.622 102.762 259.63 102.74 259.631 102.718C259.632 102.703 259.624 102.687 259.621 102.671C259.625 102.717 259.629 102.764 259.634 102.811V102.811Z" fill="white"/>
<path d="M361.992 112.794C361.116 112.867 360.316 112.886 359.462 112.783C359.444 112.502 359.414 112.249 359.414 111.997C359.41 110.089 359.411 108.18 359.411 106.271V105.376C358.673 105.211 357.991 105.278 357.334 105.324C357.112 105.579 357.184 105.851 357.183 106.102C357.177 107.981 357.18 109.861 357.18 111.74C357.18 112.057 357.18 112.374 357.18 112.694C356.741 112.945 356.298 112.834 355.877 112.839C355.477 112.844 355.066 112.916 354.639 112.755C354.615 112.623 354.574 112.486 354.569 112.348C354.48 110.297 354.543 96.5895 354.648 95.8241C355.429 95.6501 356.231 95.7702 356.994 95.7477C357.254 95.9976 357.175 96.2732 357.176 96.5218C357.184 98.3434 357.179 100.165 357.183 101.987C357.183 102.27 357.138 102.562 357.277 102.86C357.944 102.965 358.605 102.921 359.246 102.892C359.476 102.693 359.407 102.446 359.408 102.225C359.414 100.404 359.412 98.5816 359.412 96.76C359.412 96.4741 359.412 96.1881 359.412 95.8904C359.854 95.6409 360.296 95.7551 360.716 95.7451C361.117 95.7355 361.525 95.69 361.966 95.8093C361.987 95.9816 362.025 96.1469 362.025 96.3118C362.028 101.632 362.028 106.953 362.026 112.274C362.026 112.415 362.008 112.557 361.993 112.794H361.992Z" fill="white"/>
<path d="M320.845 105.286C321.087 105.221 321.086 105.018 321.139 104.871C322.024 102.395 322.899 99.9143 323.78 97.4362C323.925 97.0257 324.063 96.6174 324.034 96.1713C324.027 96.0633 324.069 95.9522 324.095 95.8125C324.802 95.6715 325.485 95.7591 326.132 95.7565C326.356 96.0377 326.289 96.3067 326.29 96.5575C326.296 98.35 326.293 100.143 326.293 101.935C326.293 105.231 326.294 108.527 326.291 111.822C326.291 112.132 326.267 112.443 326.252 112.803C325.507 112.877 324.824 112.845 324.127 112.827C323.939 112.113 324.049 111.448 324.03 110.792C324.011 110.128 324.025 109.462 324.025 108.797V106.803C324.025 106.138 324.011 105.472 324.03 104.808C324.049 104.147 324.1 103.487 324.139 102.8C323.884 102.921 323.875 103.138 323.811 103.319C322.935 105.798 322.065 108.281 321.184 110.758C321.026 111.2 320.927 111.643 320.949 112.114C320.958 112.311 320.932 112.509 320.919 112.759C320.205 112.918 319.519 112.834 318.791 112.819C318.755 112.646 318.707 112.487 318.69 112.324C318.673 112.152 318.685 111.978 318.685 111.804C318.685 106.803 318.684 101.801 318.685 96.8001C318.685 96.4868 318.702 96.1739 318.712 95.8194C319.438 95.6793 320.121 95.7353 320.848 95.7821C320.884 95.9596 320.945 96.1201 320.946 96.2811C320.952 98.623 320.956 100.965 320.946 103.306C320.944 103.767 320.875 104.227 320.847 104.688C320.834 104.883 320.844 105.08 320.844 105.287L320.845 105.286Z" fill="white"/>
<path d="M300.338 104.268C300.368 103.169 300.361 102.069 300.441 100.974C300.5 100.171 300.642 99.3693 300.806 98.5791C300.936 97.9547 301.226 97.3837 301.6 96.856C302.84 95.1073 305.63 95.0483 306.923 96.8421C307.408 97.5138 307.695 98.2667 307.857 99.0659C307.96 99.5749 308.046 100.093 308.07 100.611C308.137 102.083 308.228 103.557 308.196 105.028C308.165 106.411 308.176 107.803 307.924 109.176C307.782 109.95 307.575 110.699 307.173 111.38C306.352 112.772 304.94 113.363 303.374 112.965C302.447 112.729 301.789 112.142 301.328 111.326C300.91 110.585 300.699 109.778 300.575 108.941C300.345 107.39 300.364 105.829 300.338 104.267V104.268ZM303.127 104.297C303.158 105.778 303.179 107.249 303.226 108.719C303.239 109.149 303.304 109.581 303.388 110.004C303.432 110.221 303.54 110.442 303.672 110.623C303.938 110.986 304.521 111.012 304.816 110.672C304.961 110.504 305.072 110.285 305.132 110.07C305.216 109.767 305.265 109.448 305.282 109.133C305.34 108.04 305.411 106.945 305.414 105.851C305.42 104.15 305.386 102.448 305.344 100.748C305.327 100.087 305.267 99.4239 305.178 98.7687C305.14 98.4949 305.018 98.2085 304.858 97.9803C304.572 97.5728 303.961 97.5837 303.664 97.9877C303.531 98.1682 303.427 98.3912 303.384 98.6095C303.301 99.0325 303.239 99.4643 303.225 99.8947C303.179 101.365 303.158 102.836 303.127 104.297H303.127Z" fill="white"/>
<path d="M366.128 129.756C366.209 128.341 366.278 126.898 366.378 125.458C366.436 124.616 366.639 123.8 367.009 123.037C367.485 122.056 368.187 121.315 369.298 121.066C370.598 120.775 371.719 121.095 372.609 122.101C373.222 122.794 373.546 123.633 373.695 124.526C373.837 125.38 373.954 126.244 373.99 127.107C374.08 129.332 374.099 131.557 373.884 133.778C373.806 134.588 373.666 135.385 373.348 136.136C373.191 136.506 372.997 136.869 372.766 137.198C371.505 138.996 368.639 138.967 367.396 137.125C366.761 136.184 366.47 135.13 366.378 134.027C366.261 132.618 366.21 131.202 366.128 129.756V129.756ZM371.305 129.799C371.286 129.798 371.268 129.798 371.249 129.797C371.249 129.133 371.267 128.469 371.244 127.806C371.209 126.741 371.162 125.675 371.085 124.612C371.06 124.275 370.95 123.936 370.833 123.616C370.726 123.325 370.488 123.17 370.158 123.159C369.796 123.147 369.531 123.301 369.386 123.613C369.279 123.844 369.201 124.101 369.172 124.353C369.099 124.983 369.021 125.616 369.017 126.248C368.999 128.584 368.999 130.92 369.017 133.256C369.021 133.889 369.099 134.522 369.173 135.151C369.202 135.404 369.289 135.658 369.394 135.892C369.534 136.205 369.801 136.379 370.155 136.366C370.477 136.355 370.7 136.165 370.832 135.892C370.931 135.687 370.996 135.461 371.045 135.238C371.088 135.042 371.099 134.838 371.107 134.636C371.175 133.024 371.239 131.411 371.304 129.799H371.305Z" fill="white"/>
<path d="M376.759 105.814C376.398 105.621 376.084 105.721 375.754 105.712C375.547 106.061 375.526 106.438 375.462 106.8C375.147 108.562 374.839 110.325 374.524 112.087C374.484 112.311 374.418 112.531 374.369 112.737C373.656 112.882 372.545 112.884 371.793 112.737C372.002 111.433 372.352 110.158 372.635 108.87C372.92 107.573 373.212 106.278 373.503 104.969C373.424 104.875 373.36 104.779 373.277 104.703C372.761 104.234 372.496 103.629 372.355 102.97C372.059 101.599 372.005 100.219 372.305 98.8422C372.391 98.4504 372.517 98.0599 372.68 97.6932C373.195 96.5303 374.131 95.9298 375.381 95.7862C375.64 95.7562 375.902 95.7423 376.163 95.7406C376.976 95.735 377.79 95.7345 378.603 95.7415C378.799 95.7432 378.994 95.7814 379.228 95.8066C379.245 96.0135 379.269 96.1802 379.272 96.3477C379.371 100.914 379.32 111.83 379.189 112.776C378.438 112.903 377.674 112.853 376.853 112.802C376.831 112.513 376.798 112.262 376.797 112.012C376.792 110.22 376.796 108.429 376.793 106.638C376.792 106.354 376.77 106.071 376.759 105.814L376.759 105.814ZM376.713 103.372C376.847 102.399 376.823 98.6843 376.68 98.0516C376.551 98.0339 376.41 97.997 376.27 97.9978C375.495 98.0017 375.114 98.2873 374.872 99.0349C374.836 99.1442 374.794 99.2545 374.78 99.3668C374.671 100.257 374.653 101.149 374.773 102.038C374.806 102.289 374.896 102.549 375.023 102.767C375.395 103.405 375.975 103.551 376.713 103.372V103.372Z" fill="white"/>
<path d="M261.628 121.193V123.047C261.443 123.204 261.191 123.331 261.079 123.535C260.962 123.748 260.965 124.033 260.942 124.288C260.866 125.122 260.826 125.96 260.728 126.791C260.577 128.064 260.459 128.258 259.547 129.061C259.583 129.105 259.609 129.171 259.655 129.191C260.568 129.594 260.886 130.378 260.97 131.282C261.052 132.173 261.085 133.067 261.133 133.961C261.154 134.336 261.151 134.712 261.173 135.086C261.202 135.565 261.338 135.991 261.823 136.181V138.265C260.925 138.632 260.079 138.42 259.544 137.715C259.277 137.363 259.096 136.963 259.043 136.529C258.92 135.528 258.821 134.523 258.724 133.519C258.665 132.916 258.66 132.307 258.573 131.709C258.439 130.79 258.135 130.55 257.184 130.514C257.098 130.511 257.011 130.532 256.923 130.543C256.696 130.752 256.776 131.027 256.775 131.274C256.769 133.296 256.773 135.319 256.77 137.341C256.77 137.625 256.751 137.908 256.738 138.239C255.907 138.374 255.116 138.332 254.3 138.263C254.271 138.113 254.23 138.003 254.23 137.894C254.227 132.377 254.228 126.861 254.228 121.36C254.633 121.062 255.053 121.196 255.444 121.184C255.844 121.172 256.252 121.127 256.706 121.251C256.728 121.476 256.768 121.696 256.768 121.916C256.774 123.62 256.768 125.325 256.774 127.029C256.775 127.312 256.708 127.607 256.867 127.872C258.089 128.023 258.425 127.774 258.525 126.613C258.605 125.692 258.639 124.769 258.729 123.85C258.776 123.365 258.876 122.882 258.993 122.409C259.085 122.041 259.273 121.696 259.585 121.47C259.812 121.304 260.085 121.177 260.356 121.102C260.841 120.967 260.914 120.992 261.628 121.192V121.193Z" fill="white"/>
<path d="M375.641 121.201C376.29 121.192 376.809 121.169 377.327 121.181C377.993 121.197 378.664 121.198 379.323 121.284C380.603 121.449 381.452 122.198 381.824 123.404C382.251 124.788 382.211 126.197 381.807 127.589C381.64 128.165 381.308 128.627 380.779 128.936C380.682 128.994 380.594 129.066 380.442 129.175C380.624 129.285 380.758 129.371 380.897 129.45C381.59 129.845 382.027 130.446 382.232 131.198C382.626 132.644 382.677 134.101 382.288 135.562C381.87 137.132 380.849 138.018 379.244 138.258C378.694 138.341 376.475 138.339 375.765 138.252C375.572 138.033 375.646 137.761 375.645 137.511C375.638 135.633 375.641 133.755 375.641 131.877V121.202L375.641 121.201ZM378.175 136.171C379.26 136.269 379.662 136.05 379.801 135.242C380.023 133.957 380.037 132.657 379.774 131.38C379.599 130.53 379.2 130.103 378.212 130.386C378.188 130.458 378.138 130.538 378.137 130.618C378.129 132.315 378.125 134.013 378.124 135.711C378.124 135.851 378.154 135.991 378.175 136.171H378.175ZM378.204 128.161C378.922 128.299 379.214 128.193 379.478 127.632C379.586 127.403 379.659 127.137 379.664 126.886C379.681 126.138 379.671 125.388 379.64 124.64C379.629 124.386 379.556 124.125 379.46 123.888C379.228 123.314 378.952 123.188 378.225 123.27C378.091 123.897 378.076 127.375 378.204 128.161H378.204Z" fill="white"/>
<path d="M263.385 121.195C264.108 121.188 264.714 121.171 265.319 121.181C265.84 121.189 266.364 121.208 266.883 121.26C268.401 121.41 269.349 122.399 269.676 123.936C269.901 124.997 269.85 126.065 269.642 127.123C269.486 127.917 269.136 128.599 268.374 128.997C268.296 129.037 268.222 129.086 268.055 129.185C269.491 129.77 269.965 130.875 270.145 132.17C270.298 133.268 270.285 134.36 270.024 135.442C269.991 135.582 269.941 135.719 269.897 135.856C269.424 137.311 268.375 138.078 266.89 138.254C265.767 138.388 264.634 138.319 263.456 138.301C263.423 138.101 263.376 137.94 263.372 137.778C263.361 137.344 263.367 136.911 263.367 136.477C263.367 131.765 263.366 127.053 263.367 122.341C263.367 121.997 263.377 121.654 263.385 121.195V121.195ZM265.925 136.178C266.886 136.416 267.376 136.003 267.567 134.965C267.583 134.88 267.589 134.792 267.589 134.706C267.59 133.812 267.602 132.917 267.581 132.023C267.575 131.739 267.507 131.448 267.419 131.176C267.162 130.379 266.774 130.198 265.907 130.434C265.817 131.253 265.825 135.407 265.925 136.178H265.925ZM265.92 128.205C266.734 128.258 267.073 128.062 267.275 127.408C267.351 127.162 267.398 126.901 267.407 126.645C267.425 126.127 267.429 125.607 267.4 125.09C267.38 124.748 267.323 124.4 267.228 124.07C267.028 123.377 266.741 123.208 265.941 123.248C265.821 123.873 265.801 127.21 265.919 128.205H265.92Z" fill="white"/>
<path d="M307.583 131.546C307.583 132.756 307.584 133.85 307.582 134.945C307.58 136.035 307.592 137.126 307.573 138.243C307.105 138.363 306.7 138.307 306.302 138.315C305.899 138.324 305.496 138.313 305.14 138.311C304.898 138.029 304.97 137.758 304.969 137.508C304.963 135.428 304.966 133.347 304.966 131.267C304.966 128.262 304.966 125.257 304.966 122.253C304.966 121.939 304.974 121.625 304.978 121.28C305.191 121.241 305.356 121.185 305.521 121.183C306.48 121.175 307.439 121.158 308.397 121.187C308.827 121.2 309.27 121.264 309.68 121.39C310.602 121.672 311.188 122.332 311.551 123.201C311.844 123.902 311.989 124.641 312.054 125.389C312.158 126.575 312.112 127.756 311.782 128.911C311.742 129.05 311.702 129.189 311.657 129.325C311.189 130.726 310.178 131.413 308.729 131.513C308.386 131.536 308.041 131.534 307.583 131.546V131.546ZM307.663 123.434C307.581 124.08 307.534 127.762 307.59 128.699C307.597 128.809 307.638 128.916 307.659 129.009C308.777 129.332 309.286 128.781 309.308 127.749C309.329 126.77 309.32 125.789 309.3 124.809C309.295 124.556 309.223 124.296 309.138 124.054C308.99 123.632 308.674 123.403 308.215 123.399C308.044 123.399 307.872 123.42 307.663 123.434H307.663Z" fill="white"/>
<path d="M282.733 138.288H280.231C280.205 138.046 280.161 137.826 280.16 137.607C280.154 136.019 280.157 134.431 280.157 132.844C280.157 129.322 280.157 125.8 280.157 122.279V121.295C280.361 121.25 280.521 121.185 280.681 121.183C281.668 121.173 282.655 121.168 283.641 121.183C283.958 121.189 284.28 121.235 284.588 121.309C285.384 121.502 286.03 121.931 286.425 122.655C286.645 123.057 286.838 123.487 286.954 123.929C287.382 125.549 287.378 127.181 286.976 128.809C286.935 128.977 286.88 129.142 286.824 129.305C286.343 130.691 285.393 131.414 283.916 131.512C283.574 131.535 283.23 131.536 282.839 131.548C282.815 131.809 282.777 132.031 282.776 132.253C282.771 133.956 282.775 135.659 282.771 137.362C282.771 137.645 282.748 137.927 282.733 138.287L282.733 138.288ZM282.861 129.061C283.072 129.072 283.245 129.096 283.416 129.089C283.948 129.069 284.227 128.876 284.364 128.379C284.447 128.077 284.498 127.758 284.507 127.446C284.527 126.699 284.533 125.95 284.507 125.204C284.494 124.834 284.429 124.457 284.326 124.102C284.203 123.682 283.895 123.425 283.437 123.403C283.244 123.394 283.05 123.425 282.87 123.438C282.747 124.179 282.739 128.192 282.861 129.06L282.861 129.061Z" fill="white"/>
<path d="M312.665 106.036C312.624 107.254 312.652 108.346 312.644 109.438C312.636 110.53 312.659 111.623 312.628 112.758C311.784 112.92 310.986 112.829 310.223 112.828C309.981 112.484 310.07 112.156 310.069 111.848C310.063 107.2 310.065 102.552 310.065 97.9032C310.065 97.3834 310.061 96.8635 310.068 96.3441C310.071 96.1762 310.105 96.0092 310.126 95.8265C310.266 95.7939 310.375 95.7466 310.484 95.7471C311.587 95.7501 312.69 95.7406 313.792 95.7744C315.194 95.8174 316.117 96.5498 316.64 97.8203C316.895 98.4408 317.031 99.093 317.099 99.7525C317.232 101.053 317.183 102.348 316.81 103.613C316.729 103.888 316.623 104.161 316.492 104.416C315.972 105.429 315.119 105.953 313.991 106.033C313.589 106.061 313.184 106.037 312.665 106.037V106.036ZM312.675 103.592C312.918 103.615 313.089 103.649 313.26 103.645C313.874 103.63 314.161 103.402 314.31 102.818C314.345 102.679 314.368 102.533 314.369 102.39C314.375 101.381 314.378 100.371 314.368 99.3611C314.367 99.1624 314.316 98.9611 314.265 98.7667C314.189 98.4794 314.047 98.2126 313.768 98.0876C313.427 97.9357 313.065 97.8355 312.675 98.0355V103.592V103.592Z" fill="white"/>
<path d="M358.49 121.225C358.773 121.204 358.943 121.181 359.112 121.18C360.013 121.176 360.914 121.172 361.815 121.182C362.104 121.186 362.395 121.22 362.68 121.269C363.732 121.448 364.47 122.036 364.93 122.991C365.197 123.545 365.359 124.13 365.443 124.73C365.632 126.084 365.628 127.438 365.302 128.777C365.261 128.946 365.205 129.11 365.15 129.275C364.667 130.698 363.692 131.433 362.173 131.517C361.999 131.527 361.824 131.517 361.65 131.523C361.507 131.528 361.366 131.543 361.246 131.551C361.017 131.796 361.094 132.069 361.093 132.319C361.085 133.995 361.091 135.672 361.087 137.348C361.087 137.632 361.064 137.916 361.053 138.184C360.411 138.349 359.623 138.369 358.556 138.25C358.53 138.104 358.484 137.943 358.478 137.781C358.466 137.406 358.473 137.029 358.473 136.654C358.473 131.885 358.473 127.115 358.473 122.346C358.473 122.002 358.484 121.658 358.49 121.225V121.225ZM361.165 123.426C361.134 123.595 361.096 123.706 361.096 123.816C361.092 125.435 361.091 127.054 361.099 128.672C361.099 128.805 361.169 128.936 361.213 129.091C361.42 129.091 361.593 129.1 361.766 129.089C362.28 129.058 362.566 128.828 362.696 128.338C362.733 128.199 362.757 128.054 362.762 127.91C362.79 127.103 362.826 126.295 362.827 125.487C362.828 125.114 362.78 124.736 362.713 124.368C362.588 123.687 362.276 123.431 361.59 123.398C361.475 123.392 361.359 123.412 361.165 123.425V123.426Z" fill="white"/>
<path d="M346.14 95.7563C346.929 95.7221 347.729 95.7368 348.581 95.7511C348.6 96.1143 348.627 96.3955 348.628 96.6771C348.631 98.3247 348.626 99.9718 348.633 101.619C348.634 101.901 348.561 102.199 348.758 102.485C349.109 102.595 349.487 102.535 349.859 102.541C351.284 102.568 352.305 103.296 352.724 104.635C352.862 105.073 352.955 105.532 353.014 105.988C353.184 107.312 353.22 108.638 352.942 109.955C352.804 110.611 352.589 111.238 352.151 111.765C351.689 112.322 351.095 112.66 350.382 112.788C349.851 112.884 346.731 112.862 346.114 112.758C346.087 112.686 346.031 112.607 346.031 112.528C346.027 107.037 346.027 101.546 346.031 96.0549C346.031 95.9755 346.087 95.8965 346.139 95.7568L346.14 95.7563ZM348.728 110.722C348.941 110.723 349.166 110.737 349.389 110.724C349.887 110.694 350.193 110.413 350.314 109.946C350.393 109.64 350.469 109.324 350.477 109.01C350.501 108.115 350.492 107.219 350.489 106.323C350.488 106.15 350.466 105.975 350.43 105.807C350.236 104.885 349.721 104.557 348.721 104.708C348.596 105.393 348.593 109.943 348.728 110.723V110.722Z" fill="white"/>
<path d="M385.833 121.204C386.644 121.166 387.448 121.146 388.28 121.228C388.565 122.162 388.628 123.114 388.793 124.045C388.959 124.984 389.094 125.927 389.247 126.868C389.404 127.838 389.569 128.806 389.724 129.775C389.875 130.717 390.016 131.66 390.166 132.601C390.316 133.542 390.489 134.48 390.622 135.423C390.754 136.356 391.009 137.275 390.999 138.264C390.21 138.346 389.468 138.348 388.675 138.262C388.373 136.744 388.296 135.212 388.006 133.721C387.695 133.527 387.367 133.623 387.056 133.608C386.739 133.592 386.421 133.604 386.064 133.604C386.008 133.836 385.941 134.022 385.919 134.213C385.79 135.331 385.674 136.452 385.546 137.571C385.519 137.797 385.458 138.019 385.41 138.262C384.66 138.361 383.944 138.317 383.28 138.299C383.208 138.225 383.183 138.209 383.172 138.186C383.16 138.161 383.153 138.129 383.157 138.101C384.01 132.595 384.864 127.088 385.72 121.581C385.737 121.472 385.784 121.367 385.833 121.205V121.204ZM387.64 131.455C387.692 130.705 387.071 125.413 386.851 124.659C386.787 125.447 386.735 126.19 386.666 126.932C386.596 127.678 386.497 128.422 386.437 129.169C386.377 129.907 386.152 130.636 386.283 131.42C386.444 131.443 386.582 131.479 386.721 131.48C387.007 131.482 387.294 131.466 387.639 131.455H387.64Z" fill="white"/>
<path d="M319.933 138.249C319.121 138.368 318.374 138.316 317.569 138.294C317.203 136.77 317.181 135.207 316.847 133.673C316.19 133.561 315.564 133.586 314.897 133.652C314.672 134.417 314.7 135.205 314.577 135.969C314.459 136.705 314.406 137.452 314.321 138.229C313.545 138.379 312.805 138.324 312.011 138.275C312.094 137.091 312.343 135.97 312.497 134.838C312.649 133.722 312.842 132.613 313.015 131.5C313.192 130.36 313.368 129.218 313.546 128.078C313.719 126.965 313.891 125.853 314.067 124.741C314.248 123.602 314.433 122.464 314.617 121.322C315.04 121.075 315.484 121.192 315.906 121.184C316.307 121.176 316.716 121.117 317.137 121.251C317.189 121.413 317.265 121.571 317.291 121.737C318.154 127.232 319.072 132.718 319.933 138.247V138.249ZM315.061 131.439C315.642 131.488 316.095 131.548 316.535 131.404C316.559 131.32 316.594 131.262 316.588 131.21C316.356 129.171 316.122 127.133 315.88 125.096C315.874 125.046 315.782 125.006 315.718 124.952C315.499 127.113 315.284 129.234 315.061 131.439V131.439Z" fill="white"/>
<path d="M278.725 138.208C278.085 138.353 277.138 138.359 276.347 138.21C276.14 136.724 275.93 135.217 275.713 133.658C275.048 133.568 274.421 133.598 273.752 133.63C273.492 134.401 273.549 135.191 273.421 135.951C273.296 136.69 273.244 137.441 273.162 138.173C272.562 138.354 271.821 138.373 270.918 138.237C270.903 138.215 270.884 138.195 270.875 138.171C270.865 138.144 270.859 138.114 270.862 138.085C270.894 137.798 270.917 137.51 270.962 137.224C271.793 131.944 272.627 126.664 273.462 121.384C273.466 121.358 273.492 121.336 273.543 121.258C274.301 121.083 275.106 121.223 275.937 121.176C276.014 121.403 276.104 121.584 276.134 121.774C276.799 125.911 277.456 130.05 278.118 134.187C278.314 135.415 278.524 136.639 278.723 137.866C278.741 137.977 278.725 138.094 278.725 138.209V138.208ZM274.674 124.855C274.487 125.016 274.474 125.21 274.464 125.412C274.434 126.016 274.417 126.623 274.354 127.224C274.224 128.455 274.064 129.685 273.924 130.916C273.906 131.076 273.936 131.242 273.946 131.45C274.469 131.465 274.944 131.588 275.435 131.35C275.18 129.174 274.93 127.033 274.674 124.855V124.855Z" fill="white"/>
<path d="M371.32 112.762C370.493 112.905 369.748 112.836 368.963 112.831C368.749 112.04 368.703 111.265 368.599 110.5C368.497 109.758 368.383 109.017 368.272 108.257C367.613 108.096 366.986 108.159 366.303 108.2C365.968 109.705 365.985 111.244 365.695 112.723C364.998 112.892 364.103 112.89 363.428 112.719C363.428 112.614 363.413 112.499 363.43 112.39C364.289 106.88 365.15 101.371 366.008 95.8823C366.638 95.7018 367.722 95.6857 368.593 95.8445C369.089 98.6316 369.514 101.454 369.969 104.271C370.423 107.087 370.896 109.901 371.32 112.762L371.32 112.762ZM366.46 105.966C367 106.029 367.447 106.048 367.957 105.948C367.946 104.792 367.718 103.694 367.59 102.589C367.46 101.477 367.393 100.355 367.162 99.1123C366.921 101.462 366.696 103.661 366.46 105.965V105.966Z" fill="white"/>
<path d="M334.239 125.254C333.98 125.318 333.789 125.384 333.592 125.409C333.05 125.479 332.505 125.533 331.917 125.598C331.873 125.334 331.853 125.108 331.795 124.892C331.675 124.447 331.586 123.983 331.389 123.573C331.129 123.036 330.42 123.064 330.136 123.599C330.03 123.8 329.958 124.03 329.921 124.255C329.843 124.739 329.773 125.227 329.744 125.716C329.638 127.476 329.544 129.239 329.62 131.001C329.677 132.327 329.639 133.662 329.891 134.974C329.94 135.229 329.994 135.486 330.082 135.729C330.228 136.131 330.519 136.351 330.844 136.332C331.211 136.31 331.433 136.084 331.531 135.758C331.645 135.372 331.721 134.974 331.811 134.581C331.836 134.47 331.85 134.356 331.874 134.213C332.277 134.036 332.667 134.198 333.057 134.255C333.427 134.309 333.795 134.372 334.211 134.438C334.191 134.682 334.188 134.877 334.158 135.068C334.059 135.699 333.879 136.309 333.591 136.882C333.08 137.896 332.274 138.456 331.113 138.516C329.476 138.602 328.367 137.959 327.743 136.458C327.534 135.955 327.392 135.416 327.287 134.881C326.875 132.798 326.855 130.686 326.906 128.575C326.93 127.566 327.014 126.556 327.114 125.551C327.203 124.658 327.392 123.78 327.768 122.955C328.214 121.977 328.936 121.317 330.002 121.057C331.598 120.668 333.068 121.395 333.689 122.902C333.988 123.625 334.189 124.376 334.24 125.254H334.239Z" fill="white"/>
<path d="M281.907 112.771C281.892 112.513 281.868 112.289 281.866 112.063C281.783 105.26 281.824 96.6854 281.941 95.8631C281.961 95.8427 281.979 95.8189 282.003 95.8028C282.026 95.7876 282.053 95.772 282.079 95.7707C282.311 95.7581 282.543 95.7403 282.775 95.7399C284.372 95.7373 285.97 95.7386 287.551 95.7386C287.769 96.2958 287.79 96.7817 287.647 97.8487C287.498 97.8713 287.334 97.9156 287.169 97.9177C286.501 97.9264 285.832 97.9177 285.163 97.9264C284.967 97.929 284.77 97.9672 284.587 97.9876C284.457 98.645 284.426 101.471 284.534 102.649C284.682 102.679 284.844 102.737 285.006 102.74C285.556 102.752 286.107 102.745 286.638 102.745C286.863 103.31 286.883 104.055 286.702 104.93C286.013 105.045 285.284 104.897 284.556 105.019C284.528 105.168 284.489 105.276 284.489 105.385C284.488 107.033 284.49 108.68 284.497 110.328C284.497 110.407 284.549 110.486 284.589 110.599C285.67 110.768 286.777 110.557 287.892 110.727C287.92 110.885 287.964 111.023 287.965 111.16C287.968 111.676 287.957 112.192 287.952 112.732C287.8 112.776 287.695 112.833 287.59 112.834C285.788 112.838 283.986 112.836 282.183 112.833C282.127 112.833 282.072 112.809 281.908 112.771L281.907 112.771Z" fill="white"/>
<path d="M289.654 138.316C289.568 137.023 289.62 135.843 289.611 134.665C289.602 133.452 289.609 132.238 289.609 131.025V123.878C289.37 123.84 289.18 123.795 288.988 123.782C288.531 123.75 288.066 123.833 287.576 123.701C287.467 122.888 287.505 122.094 287.556 121.277C287.697 121.241 287.804 121.195 287.914 121.187C288.723 121.128 293.643 121.179 294.236 121.254C294.414 122.055 294.273 122.87 294.325 123.74C293.595 123.765 292.966 123.786 292.369 123.807C292.114 124.056 292.201 124.332 292.2 124.579C292.193 126.803 292.196 129.028 292.196 131.252V137.319C292.196 137.604 292.196 137.889 292.196 138.217C291.347 138.406 290.546 138.284 289.654 138.316L289.654 138.316Z" fill="white"/>
<path d="M259.634 102.811C259.63 102.764 259.625 102.717 259.621 102.671C259.625 102.687 259.633 102.703 259.632 102.718C259.63 102.74 259.622 102.762 259.62 102.788C259.623 102.791 259.634 102.811 259.634 102.811V102.811Z" fill="white"/>
</g>
<defs>
<clipPath id="clip0_806_26809">
<rect width="252" height="105" fill="white" transform="translate(139 34)"/>
</clipPath>
</defs>
</svg>
